<?xml version="1.0" encoding="UTF-8" standalone="no"?>
<!-- Created with Inkscape (http://www.inkscape.org/) -->

<svg
   xmlns:dc="http://purl.org/dc/elements/1.1/"
   xmlns:cc="http://creativecommons.org/ns#"
   xmlns:rdf="http://www.w3.org/1999/02/22-rdf-syntax-ns#"
   xmlns:svg="http://www.w3.org/2000/svg"
   xmlns="http://www.w3.org/2000/svg"
   xmlns:xlink="http://www.w3.org/1999/xlink"
   xmlns:sodipodi="http://sodipodi.sourceforge.net/DTD/sodipodi-0.dtd"
   xmlns:inkscape="http://www.inkscape.org/namespaces/inkscape"
   width="75"
   height="75"
   viewBox="0 0 19.84375 19.843751"
   version="1.1"
   id="svg8"
   inkscape:version="0.92.2 (5c3e80d, 2017-08-06)"
   sodipodi:docname="C-Hack.svg">
  <defs
     id="defs2">
    <linearGradient
       inkscape:collect="always"
       id="linearGradient1465">
      <stop
         style="stop-color:#000000;stop-opacity:1;"
         offset="0"
         id="stop1461" />
      <stop
         id="stop1469"
         offset="0.59709954"
         style="stop-color:#000000;stop-opacity:1" />
      <stop
         style="stop-color:#000000;stop-opacity:0;"
         offset="1"
         id="stop1463" />
    </linearGradient>
    <radialGradient
       inkscape:collect="always"
       xlink:href="#linearGradient1465"
       id="radialGradient1467"
       cx="9.9054108"
       cy="9.9383364"
       fx="9.9054108"
       fy="9.9383364"
       r="9.7050123"
       gradientTransform="matrix(1,0,0,1.0064849,0,-0.06444891)"
       gradientUnits="userSpaceOnUse" />
  </defs>
  <sodipodi:namedview
     id="base"
     pagecolor="#ffffff"
     bordercolor="#666666"
     borderopacity="1.0"
     inkscape:pageopacity="0.0"
     inkscape:pageshadow="2"
     inkscape:zoom="32"
     inkscape:cx="34.322434"
     inkscape:cy="50.039563"
     inkscape:document-units="mm"
     inkscape:current-layer="layer1"
     showgrid="false"
     inkscape:window-width="1920"
     inkscape:window-height="1025"
     inkscape:window-x="0"
     inkscape:window-y="27"
     inkscape:window-maximized="1"
     units="px" />
  <metadata
     id="metadata5">
    <rdf:RDF>
      <cc:Work
         rdf:about="">
        <dc:format>image/svg+xml</dc:format>
        <dc:type
           rdf:resource="http://purl.org/dc/dcmitype/StillImage" />
        <dc:title></dc:title>
      </cc:Work>
    </rdf:RDF>
  </metadata>
  <g
     inkscape:groupmode="layer"
     id="layer6"
     inkscape:label="BG"
     style="display:inline"
     sodipodi:insensitive="true">
    <rect
       style="display:inline;opacity:1;fill:url(#radialGradient1467);fill-opacity:1;stroke:none;stroke-width:1.13053501;stroke-linecap:round;stroke-linejoin:round;stroke-miterlimit:4;stroke-dasharray:none;stroke-opacity:1"
       id="rect1432"
       width="19.410025"
       height="19.535896"
       x="0.20039849"
       y="0.17038821" />
  </g>
  <g
     inkscape:groupmode="layer"
     id="layer4"
     inkscape:label="Wrench"
     style="display:inline;opacity:1"
     transform="translate(0,-277.15622)"
     sodipodi:insensitive="true">
    <path
       style="opacity:1;fill:#ffffff;fill-opacity:1;stroke:#ffffff;stroke-width:0.09858461;stroke-linecap:butt;stroke-linejoin:miter;stroke-miterlimit:4;stroke-dasharray:none;stroke-opacity:1"
       d="m 15.401978,283.4059 c -0.207942,2e-4 -0.421279,0.0359 -0.612274,0.13506 -0.492394,0.2555 -0.504842,1.06394 -0.90014,1.4879 -0.330536,0.3545 -1.188473,0.83777 -1.188473,0.83777 l -2.272447,1.37814 c 0.02626,0.14644 0.02169,0.26137 0.02169,0.26137 l 0.764228,0.51204 c 1.420676,-0.83854 2.589648,-1.48133 2.810863,-1.57868 0.590575,-0.25989 0.87933,-0.0913 1.481852,-0.0731 0.476415,0.0291 1.507753,-0.61539 1.358227,-1.26852 l -1.153225,0.2947 c -0.236173,-0.12755 -0.703813,-0.59317 -0.397206,-1.10195 l 1.11475,-0.33313 v -0.32034 c 0,0 -0.496428,-0.23171 -1.027852,-0.23119 z m -7.3551745,5.25172 -2.9323008,1.65376 c -0.4930252,0.25984 -0.8174949,0.1078 -1.1224844,0.14093 -0.6381149,0.0898 -0.9849911,0.82643 -0.759037,1.31419 0.4150153,0.89585 1.2928109,0.77549 1.6354973,0.46126 0.3111258,-0.19991 0.3614667,-0.60887 0.9640786,-0.96714 l 3.5040198,-2.06333 -0.029755,-0.0166 c -0.3559264,0.0899 -0.5094853,0.0488 -0.5094853,0.0488 l -0.6506854,-0.42898 c -0.055297,-0.0634 -0.099848,-0.14291 -0.099848,-0.14291 0.024054,0.0465 0,4e-5 0,4e-5 z m -3.9634653,2.04153 0.1957316,0.0535 0.2041078,-0.0517 0.137064,0.14336 0.1859548,0.048 0.05,0.18655 0.129879,0.14658 -0.073248,0.23319 0.059939,0.1999 -0.1798748,0.15989 -0.086647,0.18655 -0.1665255,0.0134 -0.1799178,0.18655 -0.2065312,-0.0666 -0.2331867,0.0266 -0.1132558,-0.12992 -0.2498528,-0.0799 0.016661,-0.20985 -0.1665677,-0.16988 0.091107,-0.20237 -0.0078,-0.21074 0.1432282,-0.11657 0.078482,-0.18323 0.1783871,-0.0253 z"
       id="path1391"
       inkscape:connector-curvature="0"
       sodipodi:nodetypes="cccccccsccccccscccscccccccccccccccccccccccccccccccccc" />
  </g>
  <g
     inkscape:groupmode="layer"
     id="layer3"
     inkscape:label="Soldering Iron"
     style="display:inline"
     transform="translate(0,-277.15622)"
     sodipodi:insensitive="true">
    <g
       id="g1440"
       transform="matrix(0.89622375,0,0,0.89622375,1.0656575,29.170611)">
      <path
         inkscape:connector-curvature="0"
         id="path1351"
         d="m 2.5010128,284.54493 1.4231848,1.14131 -0.012239,0.0181 c -0.042092,0.0874 -0.049678,0.27596 0.1133729,0.35402 l 4.0453227,2.52475 c -0.1827469,0.4094 -0.1045177,0.73474 0.047389,0.90646 l 0.6585584,0.42309 c 0.1954988,-0.01 0.3722389,-0.0446 0.5293896,-0.10152 l 2.1473478,1.26912 c 0.05842,-0.004 0.114143,-0.0149 0.167213,-0.0307 l -9.01e-4,0.002 2.380924,1.31673 c 0.05833,-0.014 0.112986,-0.0371 0.163608,-0.067 l 0.367869,0.23453 c 0.311826,-0.12297 0.433317,-0.40115 0.387934,-0.60904 l -0.377119,-0.23794 c 0.0038,-0.0676 -0.0051,-0.1302 -0.02884,-0.18182 l -2.195448,-1.56934 c -0.01043,-0.0732 -0.03308,-0.13721 -0.06883,-0.18637 l -2.048396,-1.3564 c 0.002,-0.13423 -0.0066,-0.27553 -0.02685,-0.42351 0,0 -0.5999388,-0.44246 -0.7675197,-0.48907 -0.3995302,-0.15093 -0.8434652,0.31963 -0.8434652,0.31963 l -0.00313,0.005 -4.0395358,-2.558 c -0.1089702,-0.0764 -0.2456748,-0.0356 -0.3489414,0.0712 l -0.0074,0.011 z"
         style="fill:#ffffff;fill-opacity:1;stroke:#ffffff;stroke-width:0.10999998;stroke-linecap:butt;stroke-linejoin:miter;stroke-miterlimit:4;stroke-dasharray:none;stroke-opacity:1" />
      <path
         sodipodi:nodetypes="caac"
         inkscape:connector-curvature="0"
         id="path1389"
         d="m 14.808009,292.3034 c 0,0 0.464425,0.26954 0.557284,0.50157 0.221973,0.55464 -0.521664,1.32976 -0.137152,1.78699 0.352102,0.41869 1.633673,0.1569 1.633673,0.1569"
         style="fill:none;stroke:#ffffff;stroke-width:0.22315855;stroke-linecap:butt;stroke-linejoin:miter;stroke-miterlimit:4;stroke-dasharray:none;stroke-opacity:1" />
    </g>
  </g>
  <g
     inkscape:label="Tux Skull"
     inkscape:groupmode="layer"
     id="layer1"
     style="display:inline"
     transform="translate(0,-277.15622)"
     sodipodi:insensitive="true">
    <path
       style="fill:#ffffff;fill-opacity:1;stroke:#ffffff;stroke-width:0.37260318;stroke-linecap:butt;stroke-linejoin:miter;stroke-miterlimit:4;stroke-dasharray:none;stroke-opacity:1"
       d="m 37.226562,23.964844 c -1.82166,0 -2.483467,2.832473 -4.99414,2.773437 -1.865084,-0.04384 -3.03125,1.330078 -3.03125,1.330078 0,0 1.428821,-0.333336 2.71289,0.08203 0.484226,0.156472 2.056347,1.152811 3.365235,2.02539 1.782478,1.188359 2.139707,1.194912 3.75,0.04687 1.454324,-1.163414 2.557049,-1.900902 3.367187,-2.138672 1.283003,-0.376441 2.59375,-0.0918 2.59375,-0.0918 0,0 -1.041215,-1.335474 -3.013672,-1.34961 -2.747683,-0.0189 -2.928338,-2.677734 -4.75,-2.677734 z m 0.902344,0.693359 c 0.350211,-2.27e-4 0.632798,0.553507 0.632813,1.238281 4.9e-5,0.684889 -0.282621,1.242415 -0.632813,1.242188 -0.350135,-7.6e-5 -0.634815,-0.557488 -0.634765,-1.242188 1.3e-5,-0.684661 0.284638,-1.238205 0.634765,-1.238281 z m -1.896484,0.0039 c 0.350105,7.6e-5 0.634755,0.555611 0.634766,1.240235 -1.1e-5,0.684623 -0.284663,1.240196 -0.634766,1.240234 -0.350105,-3.8e-5 -0.634753,-0.555611 -0.634766,-1.240234 1.3e-5,-0.684624 0.284663,-1.240159 0.634766,-1.240235 z"
       transform="matrix(0.26458333,0,0,0.26458333,0,277.15622)"
       id="path1149"
       inkscape:connector-curvature="0" />
    <path
       style="fill:#ffffff;fill-opacity:1;stroke:#ffffff;stroke-width:0.09858461;stroke-linecap:butt;stroke-linejoin:miter;stroke-miterlimit:4;stroke-dasharray:none;stroke-opacity:1"
       d="m 7.4140055,284.40809 c 0,0 0.2338271,-0.30258 0.5237852,-0.41974 0,0 -0.3160629,-0.45707 -0.3005153,-1.17228 0.1135976,-1.1097 1.1316542,-1.19291 1.5392344,-0.80071 0.5227862,0.50306 0.3193625,1.18937 0.3193625,1.18937 0.1831546,-0.0937 0.4691256,-0.0997 0.6333827,-0.0307 0,0 -0.2574282,-0.62356 0.205566,-1.11228 0.393769,-0.41564 1.37686,-0.41722 1.579991,0.6559 0.101167,0.53446 -0.132586,1.06537 -0.238352,1.24484 0.268247,0.11561 0.500683,0.41201 0.500683,0.41201 0,0 0.327151,-1.74848 0.109484,-2.93788 0,0 -0.324436,-1.89578 -2.4643292,-1.88128 -1.9724126,0.0134 -2.393057,1.69473 -2.4021283,1.82172 -0.2713761,1.55662 -0.00617,3.03107 -0.00617,3.03107 0.1736328,-0.22738 6e-6,-4e-5 6e-6,-4e-5 z"
       id="path896"
       inkscape:connector-curvature="0"
       sodipodi:nodetypes="cccsccsscccsccc" />
    <path
       style="display:inline;fill:#ffffff;fill-opacity:1;stroke:#ffffff;stroke-width:0.09858461;stroke-linecap:butt;stroke-linejoin:miter;stroke-miterlimit:4;stroke-dasharray:none;stroke-opacity:1"
       d="m 7.7252279,284.88972 c 0,0 0.353132,-0.0923 0.5947819,0.0373 0.182687,0.0661 1.1509964,0.88466 1.547446,0.87595 0.3964692,-0.009 1.0792632,-0.76972 1.4355062,-0.89016 0.183889,-0.11591 0.582693,-0.0459 0.582693,-0.0459 0,0 -0.853363,0.66373 -1.350929,1.07022 -0.472055,0.38564 -0.8585394,0.38499 -1.4128314,-0.0181 -0.4621845,-0.33599 -0.9339718,-0.69409 -1.3966667,-1.02929 z"
       id="path927"
       inkscape:connector-curvature="0"
       sodipodi:nodetypes="ccsccscc" />
  </g>
</svg>
