<?xml version="1.0" encoding="UTF-8" standalone="no"?>
<!-- Created with Inkscape (http://www.inkscape.org/) -->

<svg
   xmlns:dc="http://purl.org/dc/elements/1.1/"
   xmlns:cc="http://creativecommons.org/ns#"
   xmlns:rdf="http://www.w3.org/1999/02/22-rdf-syntax-ns#"
   xmlns:svg="http://www.w3.org/2000/svg"
   xmlns="http://www.w3.org/2000/svg"
   xmlns:xlink="http://www.w3.org/1999/xlink"
   xmlns:sodipodi="http://sodipodi.sourceforge.net/DTD/sodipodi-0.dtd"
   xmlns:inkscape="http://www.inkscape.org/namespaces/inkscape"
   width="75"
   height="75"
   viewBox="0 0 19.84375 19.843751"
   version="1.1"
   id="svg8"
   inkscape:version="0.92.2 (5c3e80d, 2017-08-06)"
   sodipodi:docname="C-Hardware.svg">
  <defs
     id="defs2">
    <linearGradient
       id="linearGradient1465"
       inkscape:collect="always">
      <stop
         id="stop1461"
         offset="0"
         style="stop-color:#000000;stop-opacity:1;" />
      <stop
         style="stop-color:#000000;stop-opacity:1"
         offset="0.59709954"
         id="stop1469" />
      <stop
         id="stop1463"
         offset="1"
         style="stop-color:#000000;stop-opacity:0;" />
    </linearGradient>
    <radialGradient
       gradientUnits="userSpaceOnUse"
       gradientTransform="matrix(1,0,0,1.0064849,0,-0.06444891)"
       r="9.7050123"
       fy="9.9383364"
       fx="9.9054108"
       cy="9.9383364"
       cx="9.9054108"
       id="radialGradient1467"
       xlink:href="#linearGradient1465"
       inkscape:collect="always" />
  </defs>
  <sodipodi:namedview
     id="base"
     pagecolor="#ffffff"
     bordercolor="#666666"
     borderopacity="1.0"
     inkscape:pageopacity="0.0"
     inkscape:pageshadow="2"
     inkscape:zoom="10.472727"
     inkscape:cx="36.586911"
     inkscape:cy="33.794848"
     inkscape:document-units="mm"
     inkscape:current-layer="layer2"
     showgrid="false"
     inkscape:window-width="1920"
     inkscape:window-height="1025"
     inkscape:window-x="0"
     inkscape:window-y="27"
     inkscape:window-maximized="1"
     units="px" />
  <metadata
     id="metadata5">
    <rdf:RDF>
      <cc:Work
         rdf:about="">
        <dc:format>image/svg+xml</dc:format>
        <dc:type
           rdf:resource="http://purl.org/dc/dcmitype/StillImage" />
        <dc:title></dc:title>
      </cc:Work>
    </rdf:RDF>
  </metadata>
  <g
     inkscape:groupmode="layer"
     id="layer5"
     inkscape:label="BG"
     style="display:inline"
     sodipodi:insensitive="true">
    <g
       style="display:inline;opacity:1"
       id="g1851"
       transform="matrix(1,0,0,0.99224073,-0.00190923,0.05376285)">
      <g
         style="display:inline"
         inkscape:label="BG"
         id="layer6">
        <rect
           y="0.17038821"
           x="0.20039849"
           height="19.535896"
           width="19.410025"
           id="rect1432"
           style="display:inline;opacity:1;fill:url(#radialGradient1467);fill-opacity:1;stroke:none;stroke-width:1.13053501;stroke-linecap:round;stroke-linejoin:round;stroke-miterlimit:4;stroke-dasharray:none;stroke-opacity:1" />
      </g>
      <g
         transform="translate(0,-277.15622)"
         style="display:inline;opacity:1"
         inkscape:label="Wrench"
         id="layer4-3" />
      <g
         transform="translate(0,-277.15622)"
         style="display:inline"
         inkscape:label="Soldering Iron"
         id="layer3">
        <g
           transform="matrix(0.89622375,0,0,0.89622375,1.0656575,29.170611)"
           id="g1440" />
      </g>
      <g
         transform="translate(0,-277.15622)"
         style="display:inline"
         id="layer1"
         inkscape:label="Tux Skull" />
    </g>
  </g>
  <g
     inkscape:groupmode="layer"
     id="layer2"
     inkscape:label="Scewdriver"
     style="display:inline"
     sodipodi:insensitive="true">
    <path
       style="fill:#ffffff;fill-opacity:1;stroke:#ffffff;stroke-width:0.23423034px;stroke-linecap:butt;stroke-linejoin:miter;stroke-opacity:1"
       d="m 4.0970106,4.7586953 0.4571916,-0.4571915 1.3029957,0.9829616 0.1119614,0.485943 4.9053597,4.6902636 c 0,0 0.305077,-0.310491 0.641145,-0.480502 l 4.251159,3.613752 c -0.08001,1.142977 -0.834374,1.680177 -1.645889,1.794476 l -3.942555,-3.945215 c 0.122566,-0.336069 0.371558,-0.650187 0.371558,-0.650187 L 5.6548677,6.1039446 5.148551,6.0502602 Z"
       id="path1741"
       inkscape:connector-curvature="0"
       sodipodi:nodetypes="ccccccccccccc" />
  </g>
  <g
     inkscape:groupmode="layer"
     id="layer4"
     inkscape:label="Wrench"
     style="display:inline;opacity:1"
     transform="translate(0,-277.15622)"
     sodipodi:insensitive="true">
    <path
       style="opacity:1;fill:#ffffff;fill-opacity:1;stroke:#ffffff;stroke-width:0.10214874;stroke-linecap:butt;stroke-linejoin:miter;stroke-miterlimit:4;stroke-dasharray:none;stroke-opacity:1"
       d="m 14.655917,280.96408 c -0.127442,0.007 -0.262725,0.0239 -0.396637,0.0557 -0.209595,0.05 -0.416272,0.13709 -0.585118,0.28272 -0.435322,0.37533 -0.254571,1.19359 -0.551722,1.71557 -0.248467,0.43642 -0.997767,1.12859 -0.997767,1.12859 l -2.1258931,2.04196 0.8749291,0.84245 2.723139,-2.62364 c 0.533258,-0.40325 0.864488,-0.30246 1.476292,-0.4282 0.487272,-0.0847 1.372866,-0.98077 1.065931,-1.60347 l -1.092009,0.57276 c -0.268606,-0.072 -0.851254,-0.42978 -0.663805,-1.01606 l 1.043974,-0.60204 -0.0764,-0.32298 c 0,0 -0.312591,-0.065 -0.694914,-0.0435 z m -5.6195999,6.15096 -3.4975418,3.32713 c -0.4349227,0.37987 -0.7983924,0.30403 -1.0979548,0.41037 -0.6218613,0.24312 -0.7955178,1.06875 -0.4510763,1.50647 0.6326371,0.80394 1.489125,0.47288 1.7594725,0.0741 0.2658662,-0.27593 0.2187936,-0.70061 0.7406619,-1.20591 l 3.4197701,-3.26538 z m -4.0410293,3.87061 0.1724703,0.11163 0.1990043,0.005 0.095156,0.17614 0.1660656,0.11666 -0.018298,0.25252 0.1084229,0.18757 -0.1431915,0.20404 -0.042546,0.2086 -0.1646932,0.0536 -0.1367868,0.23103 -0.2241658,-0.0179 -0.2287406,0.0828 -0.1454791,-0.10385 -0.2708287,-0.0211 -0.033396,-0.21548 -0.2086113,-0.13129 0.043461,-0.226 -0.0581,-0.21044 0.1162002,-0.15188 0.035684,-0.20358 0.1738427,-0.0681 0.1610333,-0.18574 0.2104415,0.007 z"
       id="path1391"
       inkscape:connector-curvature="0"
       sodipodi:nodetypes="ccccccccccccccccccccccccccccccccccccccccccccccccc" />
  </g>
</svg>
